<?xml version="1.0" encoding="UTF-8"?>
<!-- Generator: Adobe Illustrator 19.1.0, SVG Export Plug-In . SVG Version: 6.00 Build 0)  -->
<svg version="1.1" id="Layer_1" xmlns="http://www.w3.org/2000/svg" xmlns:xlink="http://www.w3.org/1999/xlink" x="0px" y="0px" viewBox="0 0 502 200" style="enable-background:new 0 0 502 200;" xml:space="preserve">
<style type="text/css">
	.st0{fill:#fff;}
</style>
<g>
	<g>
		<path class="st0" d="M196.3,57.9c-0.7-2.2-0.9-2.4-0.9-2.4s-2.2-0.5-2.7-1.2c-0.1-0.1-0.1-0.2-0.2-0.2c-0.4,4.3-1.8,16.2-1.9,15.6    c-0.1-0.6-1.1-13.4-1.3-17.4l-3.1-0.6c-0.2,1.2-0.5,2.7-0.6,3c-0.2,0.4-0.6-2.5-0.6-2.5l-0.4-2.7l-0.4-0.6l-1.8,0.6l-0.2,3.5    c0,0-0.7-1.4-1.3-2.7l-0.2,0.1c0,0-3.2-0.8-4.8-0.5c-0.6,0.1-1.2,0.5-1.7,0.8l-0.6,2.8l-0.6-1.7c-0.1,0.1-0.1,0.1-0.2,0.2    c-0.1,0.1-0.1,0.2-0.1,0.2l0,0c-0.6,0.9-1,2.1-1,2.1s-0.2-1.3,0-2.3c0.2-1-1.3-1.3-1.3-1.3s0,3.3,0.3,4.7c0.3,1.3-0.7,1.8-0.8,2.7    c-0.2,0.8,0.2,12.2,0.7,14.3c0.5,2.2,1,9,1.2,12c0.2,3-0.1,31-0.1,31l-0.2,1.1c-0.1-0.2-0.6-0.8-0.6-0.8s-16.3-31.4-19.2-35.9    c-2.8-4.5-11.7-23-12.5-24.2c-0.8-1.2-3.3-4-3.3-4s-1.3,0.6-1.3,1.1c-3.8-0.3-4.3,0.9-4.3,0.9s-0.8-1.5-2.2-1.7    c-1.3-0.2-2.8,0.1-2.8,0.1l-1.5-1.1c-0.4-0.3-1-0.2-1.2,0.3l-2.7,3.5c-0.5,0.7-0.8,1.5-0.8,2.4l0.1,24.6c0,0,0,0,0,0    c-3.2,5.3-10.2,3.5-14.3,1.7c-1.9-0.8-3.5-2.8-4.6-4.6c-0.2-0.6-0.4-1.1-0.5-1.4c-1.5-3.5-5-22.1-5.6-22.8    c-0.4-2.8-0.5-11.8-0.8-12.6c-0.2-0.7-2.3-7.2-6.1-10.5c0.1,6.9,0.2,18.3-0.1,17.8c-0.3-0.5-3.2-15.8-5-24.7c0,0,0,0,0,0    s-2.5-1.2-4.2-2.1c-0.3-4.8-1.1-8-1.7-9.6c-0.2-1.6-0.5-3-1.2-3.5c0,0-6.1,0.4-6.9,1c-0.8,0.6-10.4,52.6-11,54.9    c-0.6,2.4-8.6,35.5-9,36c-0.4,0.5-7.3,16.1-7.4,16.6c-0.1,0.5-0.5,1.4,0,2c0.5,0.6,1,1.4,1,1.4s-0.6,3.4-1.3,4.4    c-0.6,1-5.5,6.4-6.2,6.8c-0.8,0.4-7.6,5.1-9.8,8.1c-2.9,0.3-5.1-0.8-5.5,0c-0.4,0.8-0.8,3.9-1.3,4.9c-0.5,1-8.8,8-9.3,8.5    c-0.5,0.5-0.3,1-1,1.4c-0.8,0.4,0,1.6-0.9,2.3c-0.9,0.6-2.1,1.9-1.5,1.9c0.6,0,3.6-1.3,4.6-0.9c1,0.4,0.9-0.3,2.6-0.9    c1.8-0.6,24-10.9,24.5-10.5c0.5,0.4-1.6,7.9-2.1,9.4s-0.5,5.5-1.1,7c-0.6,1.5,2.5,1.5,2.5,1.5s8.4,2.5,8,3.3    c-0.4,0.8-1,1.1-0.5,1.4c0.5,0.3,4.8,2.4,4.5,3.9c-0.3,1.5-0.3,6.5,3.9,6c4.1-0.5,4.8-2.3,4.9-3.4c0.1-1.1,2.6-13.6,2.9-14.5    c0.3-0.9,1.4-5.3,1.4-6.9c0-1.6,1-7.6,2.1-8.8c1.1-1.1,1.6-3.9,1.6-3.9s9.6-8,11-7.9c1.4,0.1,1.5-1.4,2.6-0.8    c1.1,0.6,1.3,5.4,1.6,9c0.4,3.6,3.9,15.6,8,19.9c1.8,2,0.9,5.5,1,7.1c0.1,1.6,1.6,4.1,3.5,4.8c1.9,0.6,2.8,0.1,4.1-0.6    c1.4-0.8,1.5-4.4,2.3-3.4c0.8,1,4.4,6.3,5.9,7c1.5,0.8,4.6,1.4,6,0.4c1.4-1,3.8-5.3,3.5-6.1c-0.3-0.9-3-14.1-3.5-16.4    c-0.5-2.3-5.1-14-5.1-15.9c0-1.9-3.5-14.5-3.3-15.3c0.3-0.8,1.1-3.4,5.3-4.7c1.2-0.4,2.5-3.1,3.2-3.8c0.6-0.8-1.5-3.1-2-4.1    c-0.5-1-0.6-3.8-1.5-5.1c-0.9-1.4-1.9-5.4-1.8-6c0,0,0-0.1,0-0.1c1.4-0.6,4.7-1.5,7.6,0c2.5,1.3,4.6,4.5,5.7,6.5l0,8l-0.2,20.9    c0,0,0.7,1,0.8,2.2c0.2,1.2,0,30.2,0,30.2s0.2,4.2,1.2,5.3c1,1.2,4,4,4,4s1-2.2,1.5-3.2c0.5-1,1.2-0.5,1.2-0.5s2.7,5.3,3.3,6.5    c0.7,1.2,1.3-0.7,1.3-0.7s7,0.5,7.7-0.5c0.7-1,1.3-2,1.3-2s-1.2-34-0.8-36c0.3-2,2.2-3.3,1.8-5.8c-0.3-2.5-0.5-5.3-0.5-5.3    s1.2-0.3,1.5-1.5c0.3-1.2-0.8-12.7-0.8-12.7s7.8,11.3,8.3,12.3c0.5,1,1.7,4.8,3.2,7.2c1.5,2.3,3.8,4.7,4.3,6.5    c0.5,1.8,11.7,19.9,13,23.4c1.3,3.5,3.3,9.3,4,9.2c0.7-0.2,0.7-0.2,0.7-0.2l3.2,6l1.5,0.7c0,0-0.3-1.5,0.7-1.8c1-0.3,2-1.8,2-1.8    s1.2-3.1,2.3-2.4c1.2,0.7,3,2.1,3,2.1s1.2-0.8,1.5-2c0.3-1.2,3.3-1.8,3.3-1.8l2.2-3c0,0,0.7-55.6,0.5-59.3c-0.2-3.7,0-18.1,0-18.1    l-0.8-1.3c0,0,0.6-7,0.8-11.6C196.2,73.2,197.3,61.2,196.3,57.9z M75.6,107.4c-0.6,0.9-0.5,3.8-0.9,3.8c-0.4,0-5-1.8-4.7-2.4    c0.1-0.2,0-3.6,0.4-5.2c0.4-1.6,1.2-5.4,1.3-6.3c0.1-0.8,0.7-3.7,0.9-3.5c0.2,0.2,1.9,3.4,2.2,4.4    C75.2,99.2,76.1,106.4,75.6,107.4z M113.4,95.7c-1.1,0.5-2.9,0.3-3.8,0.2c-0.9-0.1-3.4-0.5-3.2-2.7c0.2-1.5,3.9-1.5,3.9-1.5    c0.3-0.1,2.4-0.1,3.6,0.8C115.4,93.6,114.9,94.9,113.4,95.7z M230.6,55.9c0-0.8-1.7-1.2-2.7-2.2c-1-1-2.3-2.1-2.5-2.1    c-0.3,0-0.3,0.8-0.1,1.6c-1.1-0.8-3.8,0.2-4.2,0.4c-0.3,0.3-3.3,1.6-3.5,1.5c-0.3-0.1-1.3-0.4-1.3-0.8c0-0.3-1.6-0.8-1.6-0.8    s-1.3-0.5-1.3-1.1s-2.1-0.7-2.1-0.7l-0.6,1.8c0,0-0.8-0.7-1.2-0.8c-0.4-0.2-3.1,0.2-3.1,0.2c0.3,0.7-0.8,6.2-0.9,9.4    c-0.1,2.2-0.3,13.3-0.2,20.7c-0.1-0.9-0.1-1.8-0.2-2.6c-0.1-1.8-0.3-3.6-0.3-5.4c0-1.7-0.2-3.3-0.3-4.7c-0.2-2.7-0.4-4.6-0.4-4.6    s0,1.8,0,4.6c0,1.4,0,3,0.1,4.7c0,0.8,0,1.8,0.1,2.7c0,0.9,0.1,1.8,0.2,2.7c0.2,1.8,0.3,3.7,0.5,5.4c0.2,1.7,0.3,3.3,0.5,4.7    c0.1,0.8,0.2,1.6,0.3,2.2c-0.1,4.7-0.5,13.1-0.6,13.3c-0.1,0.3-0.1,5.9,0.5,7.3c0.6,1.3,0,16.7,0.2,18.2    c0.2,1.5-0.5,11.4-0.3,12.6c0.3,1.2,0.7,9.3,0.7,10.3c0,1.1-0.8,6.7-1,8.7c-0.2,2,1.1,5.2,1.3,6.3c0.3,1.1,1.1,2.1,1.3,2.8    c0.3,0.7,2.7,0.8,3.7,1.5c0.5,0.8,2.3,3.3,2.8,3.8c0.4,0.5,4.5,0.4,4.5,0.4s3,0.8,3.3,0.8c0.3-0.1,0.1-5.8,0.8-5.8    c0.8,0,2.1,1.8,2.7,2.3c0.6,0.4,3-2.5,4.1-3.3c1.1-0.8,0.9-2.8,1.5-4.4c0.6-1.6,0.1-26.9,0.3-28.3c0.2-1.4,0-11.8,0.4-14.2    c0.4-2.4-0.4-30.6-0.4-31.1S230.6,56.6,230.6,55.9z M218.3,50.3c0.4,0.5,1.3,0.4,1.2,0.1c-0.1-0.4,0.3-0.9,0.5-1.1    c0.3-0.1,1.1,0.2,2.3-1c1.1-1.2,0.1-2.4-0.1-2.7c-0.2-0.3-1.8-0.5-2.1-0.3c-0.3,0.3-1.9,0.4-1.9,0.4s-0.9,0.8-0.8,1.9    C217.6,48.7,218.3,50.3,218.3,50.3z M229.6,51.1c0,0,0.5,0.7,0.5,1c0,0.3,0.5,1.2,1.1,1.1c0.6-0.1,0.9-2.6,0.1-3.6    c-0.3-0.5-1.9,0.2-2.1,0.6C229,50.9,229.6,51.1,229.6,51.1z M426.9,20.8c0.9-0.3,2.3-1.8,2.4-2.3c0.1-0.5-1.1-0.9-1.1-1.3    c0-0.4-0.3-1.4-0.9-1.5c-0.6-0.1-2.3,1.6-2.5,2.4c-0.3,0.8-2.3,2.7-1.4,3.6C424.7,23.1,426.1,21.1,426.9,20.8z M36.2,126.2    c0.5-0.5,1.6-1.5,1.8-2.5c0.3-1.4-0.6-2.5-2-2.1c-1.1,0.3-1.8,1.2-1.9,1.4c0,0-1.3,2.1-0.3,2.8C34.7,126.6,35.7,126.7,36.2,126.2z     M37.4,125.6c-0.4,0.7-0.5,1.4,0.2,1.6c0.5,0.2,1.2,0,1.5-0.6c0.4-0.6,0.3-1.3-0.2-1.6C38.4,124.6,37.8,124.9,37.4,125.6z     M51.2,70.7c0.6-0.6,0.8-1.7,0.3-2.5c-0.6-1.1-2.1-0.9-2.7,0c-0.5,0.7-0.9,1.8-0.2,2.5C49.3,71.4,50.6,71.3,51.2,70.7z M116.1,46    c0.7,0.4,1.4,0.3,2-0.4c0.6-0.7,0.9-1.6,0.3-2.2c-0.6-0.6-1.8-0.7-2.5-0.1C114.8,44.1,115.2,45.4,116.1,46z M278.5,147.6    c-0.8-0.1-1.9,0.4-2.2,1.3c-0.5,1.2,0.6,2.2,1.6,2.1c0.8,0,1.4-0.5,1.5-1.4C279.6,148.7,279.3,147.7,278.5,147.6z M362.7,178.3    c-0.7-0.1-1.6,0.3-1.9,1.1c-0.4,1,0.5,1.9,1.4,1.8c0.7,0,1.2-0.4,1.3-1.2C363.6,179.2,363.4,178.4,362.7,178.3z M495.2,164.6    c-1.2-0.6-2.3,0.4-2.3,1.5c0,0.8,0.4,1.4,1.4,1.6c1,0.2,1.9,0,2.1-0.8C496.6,166.1,496.1,165.1,495.2,164.6z M306,148.8    c-1,0-1.4,0.9-1.1,1.7c0.2,0.6,0.7,0.7,1.4,0.8c0.7,0,1.3-0.6,1.2-1.2C307.4,149.4,306.7,148.8,306,148.8z M306.9,145.8    c-1,0-1.3,0.8-1,1.5c0.2,0.6,0.7,0.9,1.4,0.8c0.7-0.1,1.1-0.4,1-1C308.2,146.4,307.6,145.8,306.9,145.8z M251.7,190.8    c-0.8-0.1-2.2,0.5-2.6,1.4c-0.5,1.2,0.6,2.2,1.6,2.1c0.8,0,1.4-0.5,1.5-1.4C252.4,191.9,252.5,190.9,251.7,190.8z M31.9,177.7    c-0.8,0.6-0.7,1.6,0,1.9c0.5,0.3,1.3,0.5,1.8,0c0.5-0.5,0.4-1.4,0-1.8C33.3,177.3,32.5,177.3,31.9,177.7z M40.9,174.1    c-0.5,0.3-0.4,0.9,0,1.2c0.3,0.2,0.8,0.3,1.1,0c0.3-0.3,0.3-0.9,0-1.1C41.8,173.9,41.3,173.8,40.9,174.1z M487.1,163.7    c-0.4-0.9,0.9-3,1.9-3.6c1-0.6,0.3-1-0.9-4.1c-3.9,0.4-4.5-2.5-4.5-2.5s-5.8,0.4-7.5,0.4c-1.8,0-12.4,1.1-12.4,1.1    s-9.4,0.1-9.9-0.4c-0.5-0.5-6.6,0.5-7,0.3c-0.4-0.3,0-2.6-0.3-7.3c-0.3-4.6-0.6-27.7-1-30.2c-0.4-2.5-0.4-24.3-0.4-25.7    c0-1.4-1-1.1-1-1.1s-0.8,3.9-0.9,2.6c-0.1-2.7-2-25.9-1.9-32c0.1-6.1-2.8-31.9-3.4-36.9c-0.4-3,0.4-7.7-0.8-9.5    c-0.3-0.5-1.2-0.9-2.1-0.9c-0.8,0-2.7,2.7-3,3.3c-0.9,1.4-9.8,15.6-9.9,16.6c-0.1,1-1,6.6-1,6.6s-0.6,3.5-0.6,4s-0.1,1.4-0.9,2.5    c-0.8,1.1-0.6,2.5-0.8,5.5c-0.9,0.4-1.2,3.7-1.9,8.7c-2.4,9.5-15.2,10.9-21.1,13.1c-6.3,2.3-10.7-9.3-10.7-9.3s-1-4.8-2.2-6.8    c-1.2-2-4.7-16.4-4.7-16.4s-2,1.2-1.5,2.3c0.5,1.2-0.5,5.8-1.5,6.3c-1,0.5-3,4.2-3,4.2s-0.2,3.8,0.2,4.5c0.3,0.7-5.3,18-6.5,19.7    c-1.2,1.7-3,3.5-3,3.5s1.7,7.5,0.8,9c-0.7,1.2-2.4,5.3-3.1,6.9c-1,0.4-3.2,0.7-8.1-0.5c-7.8-2-9.8-12.3-9.8-12.3l-0.2-3.3    c0,0-1.2-4.7-1.5-5.8c-0.3-1.2-0.5-11.5-0.5-11.5s0.5-7.5-0.3-8.3c-0.8-0.8-3.2-4.2-3.2-4.2l-1,0.8l-0.5,2.5c0,0-0.8,4.5-0.8,5    c0,0.5-1.2-4-1.2-4s0,6.2,0,6.7s-1-8.5-1.5-9.2c-0.5-0.7-3.5,0.8-3.5,0.8s-1.3-0.3-1.2,0.5c0.2,0.8,0.5,12.5,0.5,12.5l-2.2-11.7    l-2.3,0.2c0,0-1.2-0.3-1.7-0.7c-0.5-0.3-2.3,0.5-3.3,1.7c-1,1.2-2.3,5.2-2.8,6.8c-0.5,1.7-8.8,16.7-8.8,17.2    c0,0.5-16.8,30.2-16.8,30.2s-5-9.7-6.3-11.7c-1.3-2-3.2-5.5-4.5-8.3c-1.3-2.8-8.2-15.4-8.2-15.4s-0.5-1.8-0.8-3.3    c-0.3-1.5-3.3-6.5-3.8-7.3c-0.5-0.8-4.2-9-4.2-8.5c0,0.5-0.5,8.8-0.5,8.8s-2-9.8-2.2-11.7c-0.2-1.8-1.8-2.3-1.8-2.3s-3.5,2.7-4,3    c-0.5,0.3,0.3,7,0.3,8.8c0,1.8,0.3,11.7,0.3,11.7s-3.5-21.7-3.7-22.7c-0.2-1-2.7,0.3-3.5,0c-0.8-0.3-0.7-2.2-1.5-1.8    c-0.8,0.3-4.3,5.8-4.3,5.8c-0.5,2-0.8,20.9-0.8,26.4v43.7c0,1.5-0.2,10,0.8,10.8c1,0.8-0.5,30.2-0.5,31.2c0,1,0.7,2.2,1.3,3.5    c-0.2,3.8,1.7,3.8,2.5,4.7c0.8,0.8,0.7,0.7,0.7,2c0,1.3,1.5,0.5,3,0.7c1.5,0.2,2-1.5,3-1.7c1-0.2,1.3-0.7,2.3-1.7    c1.2,0.2,3.3-1.3,4.3-1.7c1-0.3,0.8,0.3,2,0.3c1.2,0,2.7-0.5,2.7-2.3c0-1.8-0.2-7.2-0.5-8c-0.3-0.8-0.2-9.7,0.5-10.8    c0.7-1.2,0.3-9,0.3-9.8c0-0.8,1.5-0.5,1.5-1.5s-0.7-23.4-0.7-23.4s2.2,1.7,3.3,3.3c1.2,1.7,6.7,9.2,7.2,10.7    c0.5,1.5,3.5,1.8,3.8,2.5c0.3,0.7,1.8,5.2,2.3,6.7c0.5,1.5,3,3,4,3.3c1,0.3,2.3,1.2,2.8,2.8c0.5,1.7,2.5,4.5,4.5,4.2    c2-0.3,3-3.8,3.2-4.7c0.2-0.8,1.5-2.3,2.7-3c1.2-0.7,4-9,4.8-9.8c0.8-0.8,2.5-1.3,3.2-1.8c0.7-0.5,2-6.7,3-7.7    c1-1,7.5-12.2,8.3-13.2c0.1-0.1,0.3-0.2,0.5-0.3c-0.1,3.8-0.5,14.3-0.6,15.5c0.8,1.3,1.8,1,1.5,2.7s0.3,4.2,0.8,7.2    c0.5,3,0.2,7.7,0.7,9.7c0.5,2,0,26.4,0.7,28.5c-0.7,2.7,1,3.8,2.7,4.2c1.7,0.3,0.3,0.4-0.2,1.7c1.6-1,4.1-1.5,4.8-2.7    c0.7-1.2,2-1.5,3-1.8c1-0.3-0.2-1.7,0.5-2.5c0.7-0.8,1.2,2.5,2.3,2.7c1.2,0.2,0.8-1.5,0.8-1.5s5.7-1.5,6.5-2    c0.8-0.5,0.2-3,0.5-8.3c0.3-5.3-1.5-27.9-1.8-31c-0.3-3.2,0-23.5,0-24.4c0-0.8,3.3-3.7,10.3,1c4.6,3.1,5.7,7.4,6,10    c-0.4,1.7-0.8,3.2-0.8,3.2l-1.2,2.8v3c0,0-1.3,2.5-1.5,3.2c-0.2,0.7-0.7,9-1.3,11.5c-0.7,2.5-3.5,12.5-4.7,14.7    c-1.2,2.2-2.5,11.7-2,12.2c0.5,0.5,1.8,1.5,1.8,2.3c0,0.8,1.2,2.2,1.2,2.2l4.2-2.2c0,0,2.8-2.2,3.5-2.2c0.7,0,2.2,0.5,2.8,1.5    c0.7,1,2.5-0.8,3.5-1.3c1-0.5,2.2-6.2,3.7-10c1.5-3.8,1.3-9.5,1.3-10.8c0-1.3,2.5-4.2,4.3-5.3c1.3-0.8,5.4-1.7,8.3-2.5l-0.2,0.1    c0,0,5.2-1.5,5.5,1c0.3,2.2,0.6,10.8,1.9,14.4l-0.1,0.5c0,0,1.7,4.7,2.2,6.3c0.5,1.7,3.3,1,5.3,1c2,0,1.5,1.8,3,2.5    c1.5,0.7,4.2,5,4.5,6.8c0.3,1.8,4.5,4.7,4.5,4.7l1.5-2.2c0,0,1.8-0.7,3.2-0.5c1.3,0.2,3-0.5,4.2-1.7c1.2-1.2,0.2-2.3-0.5-3.8    c-0.7-1.5-6.2-21-6.2-21.5c0-0.5-2.3-12.2-3.7-16.2c1.5-0.8,2.2-3.8,2.2-3.8l1.7-1c0,0-1.2-5.5-1.7-9.7c-0.5-4.2-5.2-9.5-5.5-10.7    c-0.3-1.2-1.5-6.7-1.5-6.7s-2.8-7.2-1.7-13c1.2-5.8,8.2-8.2,13.7-6.2c2,0.7,3.4,2.6,4.4,4.8c0.7,1.4,1,3,1,4.6    c-0.2,6,1,15.2,1.2,16.3c0.3,1.3,2,10,2.8,12.9c0.3,1.3,0.7,6.9,1,12.7c-0.1-0.1-0.1-0.1-0.1-0.1s0.6,16.1,0.1,22.5l-0.8,0.8    l-1.6,1.8c0,0,0.3,0.8-0.5,3.9c-0.8,3.1,1.3,6.6,1.3,6.6s2.4,2.3,2.6,2.6c0.3,0.4-1.1,1.4-1.6,1.9c-0.5,0.5-1.1,3.3-0.5,4.1    c0.6,0.9,5.5-0.6,7.4-0.5c1.9,0.1,3.1-2.8,4.5-2.8s2-1,2.8-1c0.8,0,6.1,0.9,6.1,0.9s-0.1,1.1,1.8,0.9c1.9-0.3,8.4-1.5,10.5-2    c2.1-0.5,9.8-0.1,10.5-0.1c0.8,0,15.9-0.1,16.3-0.1c0.4,0,5.4,0.8,7.1-0.1c1.8-0.9,3.4-5,2.8-5.6    C489.8,167.7,487.4,164.6,487.1,163.7z M360,102.3c-0.3,0.9-3.1,4.7-5.3,4.1c-1.4-0.4-3.4-2.8-4.8-4.6c-0.5-0.7,0.1-1.7,1-1.5    c2.4,0.5,5.9,1.2,7,1C359.6,101.1,360.2,101.4,360,102.3z M381.4,121.2c-1.3,0.7-3.2,0.7-3.2,0.7c-0.7-1.2-0.7-4.7-0.2-6.7    c0.5-2,1-3.7,1.2-5.3c0.2-1.7,1.8-0.2,1.8,1.5c0,1.7,1.3,5.8,1.3,7C382.4,119.5,382.8,120.5,381.4,121.2z M409.8,78.4    c-2.1,0.6-7.2,1.4-9.1,1.4c-0.8,0-1-1-0.3-1.5c0.9-0.6,1.8-1.2,3.6-2c2.4-1.1,4-1.7,5.2-1.8C411,74.5,412,77.7,409.8,78.4z"/>
	</g>
</g>
</svg>